<?xml version="1.0" encoding="UTF-8"?>
<!DOCTYPE svg PUBLIC "-//W3C//DTD SVG 1.1//EN" "http://www.w3.org/Graphics/SVG/1.1/DTD/svg11.dtd">
<!-- Creator: CorelDRAW -->
<svg xmlns="http://www.w3.org/2000/svg" xml:space="preserve" width="2.50049in" height="2.50049in" version="1.1" style="shape-rendering:geometricPrecision; text-rendering:geometricPrecision; image-rendering:optimizeQuality; fill-rule:evenodd; clip-rule:evenodd"
viewBox="0 0 4000.54 4000.54"
 xmlns:xlink="http://www.w3.org/1999/xlink"
 xmlns:xodm="http://www.corel.com/coreldraw/odm/2003">
 <defs>
  <style type="text/css">
   <![CDATA[
    .fil1 {fill:#07A626}
    .fil0 {fill:#0F192E}
    .fil2 {fill:white}
   ]]>
  </style>
 </defs>
 <g id="Layer_x0020_1">
  <metadata id="CorelCorpID_0Corel-Layer"/>
  <rect class="fil0" x="-0.01" y="-0.02" width="4000.54" height="4000.54" rx="447.62" ry="447.62"/>
  <g id="_1643961176576">
   <path class="fil1" d="M2273.33 2514.3c-56.64,28.43 -497.84,31.98 -564.39,-1.52 -10.65,-69.4 20.14,-72.03 85.09,-72.03 177.46,-0.77 325.69,-17.23 482.56,15.13l-3.26 58.43zm-283.33 197.18c501.59,-2.67 1041.44,205.71 1109.14,-210.61 22.08,-135.68 -3.59,-303.01 -42.24,-422.98 -130.92,-406.4 -491.88,-821.84 -1008.85,-859.97 -15.02,-75.71 -19.44,-373.43 -9.59,-437.16 22.5,-70.25 82.87,-46.5 80.11,-144.1 -1.76,-61.11 -49.09,-108.88 -115.52,-108.96 -67.44,-0.06 -113.18,47.86 -115.5,109.88 -3.74,99.31 56.71,70.48 79.49,143.18l-3.47 431.32c-121.93,43.75 -333.64,4.68 -639.91,287.16 -151.56,139.77 -283.71,326.82 -365.79,561.96 -86.02,246.44 -112.16,602.52 149.66,675.92 198.24,55.59 641.41,-24.36 882.46,-25.64zm-511.69 -929.46c319.96,-92.08 445.98,392.63 137.56,479.87 -319.06,90.24 -460.87,-386.82 -137.56,-479.87zm1041.27 480.12c-323.44,88.7 -460.62,-388.76 -140.09,-480.49 328.67,-94.05 438.63,398.63 140.09,480.49z"/>
   <path class="fil1" d="M2512.46 2811.06c-533.95,-35.85 -506.92,-51.18 -1062.58,4.99 -363.11,36.72 -376.31,-44.94 -490.27,-61.44 -8.13,367.25 -52.95,269.38 317.97,476.59 182.69,102.07 325.86,195.57 562.61,230.75 247.22,36.75 485.78,-23.73 663.1,-116.71l505.71 -288.92 2.25 -280.03c-298.25,55.8 -131.36,59.45 -498.79,34.76z"/>
   <path class="fil1" d="M3062.03 1905.08c87.38,189.47 104.33,309.22 116.44,521.12 296.04,-56.76 326.14,-703.37 -184.27,-667.31 12.62,48.46 46.52,99.96 67.83,146.19z"/>
   <path class="fil1" d="M826.31 2425.18c32.4,-496.81 153.56,-507.2 178.55,-668.65 -208.5,-3.36 -335.04,86.86 -385,268.33 -48.57,176.42 74.43,377.43 206.46,400.32z"/>
   <ellipse class="fil2" cx="1403.19" cy="1907.34" rx="74.91" ry="76.11"/>
   <ellipse class="fil2" cx="2333.64" cy="1885.98" rx="74.91" ry="76.11"/>
  </g>
 </g>
</svg>
